<svg width="156" height="32" viewBox="0 0 156 32" fill="none" xmlns="http://www.w3.org/2000/svg">
<path d="M8.768 24H1.12V22.752H3.072V2.848H1.12V1.6H8.192C9.17333 1.6 10.08 1.70667 10.912 1.92C11.744 2.13333 12.448 2.464 13.024 2.912C13.6213 3.36 14.08 3.94667 14.4 4.672C14.72 5.376 14.88 6.21867 14.88 7.2C14.88 8.52267 14.5493 9.68533 13.888 10.688C13.248 11.6907 12.256 12.3733 10.912 12.736C11.5307 12.864 12.128 13.0773 12.704 13.376C13.3013 13.6747 13.824 14.0587 14.272 14.528C14.72 14.9973 15.072 15.5413 15.328 16.16C15.584 16.7787 15.712 17.472 15.712 18.24C15.712 19.2 15.5093 20.0427 15.104 20.768C14.72 21.472 14.2187 22.0587 13.6 22.528C12.9387 23.0187 12.1813 23.392 11.328 23.648C10.496 23.8827 9.64267 24 8.768 24ZM4.384 13.376V22.752H8.64C9.42933 22.752 10.1653 22.656 10.848 22.464C11.552 22.272 12.1707 21.9733 12.704 21.568C13.216 21.2053 13.6213 20.736 13.92 20.16C14.24 19.584 14.4 18.912 14.4 18.144C14.4 17.312 14.2187 16.5973 13.856 16C13.5147 15.3813 13.056 14.8907 12.48 14.528C11.8827 14.144 11.2 13.856 10.432 13.664C9.68533 13.472 8.90667 13.376 8.096 13.376H4.384ZM4.384 2.848V12.128H8.608C10.144 12.128 11.3493 11.6907 12.224 10.816C13.12 9.92 13.568 8.74667 13.568 7.296C13.568 6.50667 13.44 5.824 13.184 5.248C12.928 4.672 12.5653 4.21333 12.096 3.872C11.648 3.53067 11.1147 3.27467 10.496 3.104C9.89867 2.93333 9.22667 2.848 8.48 2.848H4.384Z" fill="#5C493E"/>
<path d="M19.976 22.112C21.336 22.112 22.424 23.2 22.424 24.544C22.424 25.888 21.336 26.976 19.976 26.976C18.648 26.976 17.544 25.888 17.544 24.544C17.544 23.2 18.648 22.112 19.976 22.112ZM19.976 26.16C20.888 26.16 21.608 25.44 21.608 24.544C21.608 23.648 20.888 22.928 19.976 22.928C19.096 22.928 18.36 23.648 18.36 24.544C18.36 25.44 19.096 26.16 19.976 26.16ZM32.152 26.544C28.632 26.544 25.816 23.728 25.816 20.208C25.816 16.688 28.632 13.872 32.152 13.872C35.672 13.872 38.488 16.688 38.488 20.208C38.488 23.728 35.672 26.544 32.152 26.544ZM26.488 20.208H32.152V14.544C29 14.544 26.488 17.056 26.488 20.208ZM40.3209 26.48C40.5982 27.0453 40.9342 27.5147 41.3289 27.888C41.7342 28.272 42.1769 28.5547 42.6569 28.736C43.1475 28.9173 43.6542 29.008 44.1769 29.008C44.6889 29.008 45.1849 28.9173 45.6649 28.736C46.1449 28.5547 46.5875 28.272 46.9929 27.888C47.3982 27.5147 47.7342 27.0453 48.0009 26.48L48.6729 26.832C48.3315 27.504 47.9369 28.0587 47.4889 28.496C47.0515 28.944 46.5555 29.28 46.0009 29.504C45.4569 29.728 44.8489 29.84 44.1769 29.84C43.5155 29.84 42.9075 29.728 42.3529 29.504C41.8089 29.28 41.3129 28.944 40.8649 28.496C40.4169 28.0587 40.0169 27.504 39.6649 26.832L40.3209 26.48ZM56.1989 26.544C52.6789 26.544 49.8629 23.728 49.8629 20.208C49.8629 16.688 52.6789 13.872 56.1989 13.872C59.7189 13.872 62.5349 16.688 62.5349 20.208C62.5349 23.728 59.7189 26.544 56.1989 26.544ZM50.5349 20.208H56.1989V14.544C53.0469 14.544 50.5349 17.056 50.5349 20.208ZM66.3198 22.112C67.6798 22.112 68.7678 23.2 68.7678 24.544C68.7678 25.888 67.6798 26.976 66.3198 26.976C64.9918 26.976 63.8878 25.888 63.8878 24.544C63.8878 23.2 64.9918 22.112 66.3198 22.112ZM66.3198 26.16C67.2318 26.16 67.9518 25.44 67.9518 24.544C67.9518 23.648 67.2318 22.928 66.3198 22.928C65.4398 22.928 64.7038 23.648 64.7038 24.544C64.7038 25.44 65.4398 26.16 66.3198 26.16Z" fill="#5C493E"/>
<path d="M73.12 24V22.752H75.488V1.248H73.216V-1.90735e-06H76.8V17.92L81.792 13.248H79.84V12H85.76V13.248H83.424C82.784 13.888 82.1867 14.4747 81.632 15.008C81.0987 15.52 80.4907 16.096 79.808 16.736C80.5333 17.76 81.2587 18.7733 81.984 19.776C82.7093 20.7573 83.4453 21.7493 84.192 22.752H86.976V24H81.056V22.752H82.624C81.984 21.8773 81.344 21.024 80.704 20.192C80.064 19.3387 79.4453 18.4747 78.848 17.6L76.8 19.552V22.752H79.296V24H73.12ZM95.3898 24H89.2138V22.752H91.7098V13.248H89.4058V12H92.7658L92.7977 13.152C92.8191 13.5147 92.8404 13.8453 92.8618 14.144C92.8831 14.4213 92.9044 14.7413 92.9258 15.104C93.3524 14.1013 94.0244 13.3013 94.9418 12.704C95.8804 12.0853 96.9578 11.7653 98.1738 11.744C99.2618 11.744 100.147 12.0427 100.83 12.64C101.512 13.216 101.907 13.984 102.014 14.944C102.483 13.984 103.166 13.216 104.062 12.64C104.979 12.064 106.024 11.7653 107.198 11.744C108.392 11.744 109.32 12.0747 109.982 12.736C110.664 13.3973 111.027 14.2613 111.07 15.328V22.752H113.438V24H107.294V22.752H109.758V15.68C109.715 14.976 109.459 14.3787 108.99 13.888C108.542 13.376 107.87 13.0987 106.974 13.056C106.334 13.056 105.715 13.1627 105.118 13.376C104.542 13.5893 104.03 13.8773 103.582 14.24C103.134 14.624 102.771 15.0827 102.494 15.616C102.216 16.128 102.067 16.6933 102.046 17.312V22.752H104.414V24H98.2378V22.752H100.734V15.68C100.691 14.976 100.435 14.3787 99.9658 13.888C99.5178 13.376 98.8458 13.0987 97.9498 13.056C97.2884 13.056 96.6591 13.1627 96.0618 13.376C95.4644 13.5893 94.9524 13.888 94.5258 14.272C94.0564 14.6773 93.6831 15.1467 93.4058 15.68C93.1498 16.2133 93.0218 16.8 93.0218 17.44V22.752H95.3898V24ZM130.659 24H127.107V22.688C127.107 22.432 127.107 22.1973 127.107 21.984C127.107 21.7493 127.107 21.4933 127.107 21.216C126.957 21.6 126.723 21.9733 126.403 22.336C126.104 22.6773 125.741 22.9867 125.315 23.264C124.867 23.5627 124.355 23.7973 123.779 23.968C123.224 24.1387 122.627 24.224 121.987 24.224C121.091 24.224 120.259 24.064 119.491 23.744C118.744 23.424 118.083 22.976 117.507 22.4C116.931 21.824 116.483 21.1627 116.163 20.416C115.843 19.6693 115.683 18.8587 115.683 17.984C115.683 17.152 115.843 16.352 116.163 15.584C116.483 14.816 116.931 14.144 117.507 13.568C118.083 13.0133 118.744 12.576 119.491 12.256C120.259 11.9147 121.091 11.744 121.987 11.744C123.245 11.744 124.323 12.0533 125.219 12.672C126.115 13.2693 126.744 13.984 127.107 14.816C127.107 14.368 127.117 13.9093 127.139 13.44C127.16 12.9493 127.192 12.4693 127.235 12H128.291V22.752H130.659V24ZM121.987 13.024C121.261 13.024 120.589 13.152 119.971 13.408C119.352 13.664 118.829 14.0267 118.403 14.496C117.955 14.944 117.603 15.4667 117.347 16.064C117.112 16.6613 116.995 17.3013 116.995 17.984C116.995 18.7093 117.133 19.3813 117.411 20C117.688 20.6187 118.072 21.152 118.562 21.6C119.011 22.0267 119.523 22.3573 120.099 22.592C120.675 22.8267 121.304 22.944 121.987 22.944C122.669 22.944 123.309 22.8267 123.907 22.592C124.504 22.336 125.027 21.984 125.475 21.536C125.944 21.088 126.307 20.5653 126.563 19.968C126.84 19.3493 126.979 18.688 126.979 17.984C126.979 17.28 126.84 16.6293 126.563 16.032C126.307 15.4133 125.955 14.88 125.507 14.432C125.037 13.984 124.504 13.6427 123.907 13.408C123.309 13.152 122.669 13.024 121.987 13.024ZM139.621 24H135.685V13.28H132.901V12H135.685V4.192H136.997V12H140.709V13.28H136.997V22.752H139.621V24ZM149.236 13.024C148.425 13.024 147.678 13.1947 146.996 13.536C146.334 13.8773 145.78 14.336 145.332 14.912C144.905 15.4667 144.606 16.096 144.436 16.8C144.265 17.4827 144.254 18.1867 144.404 18.912C145.854 18.336 147.294 17.7707 148.724 17.216C150.174 16.64 151.625 16.064 153.076 15.488C152.692 14.7627 152.158 14.176 151.476 13.728C150.814 13.2587 150.068 13.024 149.236 13.024ZM153.428 22.56C152.873 23.072 152.244 23.4773 151.54 23.776C150.836 24.0747 150.068 24.224 149.236 24.224C148.361 24.224 147.54 24.064 146.772 23.744C146.025 23.424 145.364 22.976 144.788 22.4C144.212 21.824 143.764 21.1627 143.444 20.416C143.124 19.6693 142.964 18.8587 142.964 17.984C142.964 17.1307 143.124 16.32 143.444 15.552C143.764 14.784 144.212 14.1227 144.788 13.568C145.364 13.0133 146.025 12.576 146.772 12.256C147.54 11.9147 148.361 11.744 149.236 11.744C149.897 11.744 150.526 11.8613 151.124 12.096C151.721 12.3093 152.254 12.6293 152.724 13.056C153.172 13.44 153.566 13.9093 153.908 14.464C154.249 14.9973 154.526 15.584 154.74 16.224C153.076 16.8853 151.412 17.536 149.748 18.176C148.105 18.816 146.452 19.4773 144.788 20.16C145.172 20.992 145.758 21.664 146.548 22.176C147.337 22.688 148.233 22.944 149.236 22.944C149.897 22.944 150.516 22.8267 151.092 22.592C151.668 22.3573 152.18 22.0267 152.628 21.6L153.428 22.56Z" fill="#5C493E"/>
</svg>
